<svg width="70" height="20" viewBox="0 0 70 20" fill="none" xmlns="http://www.w3.org/2000/svg">
<path d="M11.0351 0C12.0258 2.45221e-05 14.249 0.00797823 14.249 0.00797823L19.4519 0.00758941L21.1288 3.9446L21.386 4.55175L25.7664 14.8316L28.8575 7.70515L25.9025 0.00758941H31.1073L36.2837 14.0973L37.211 0.00758941H42.4356L34.2778 20H33.5726L29.073 8.27625L23.8437 20H23.1385L15.6707 3.20463C14.6601 1.54663 13.2489 0.43462 11.0351 0.434494C9.24624 0.434494 7.24068 0.714907 7.24068 2.83654C7.24174 8.27566 19.5171 7.56906 19.5181 14.0689C19.5181 18.5297 15.6689 20 11.8745 20C7.83602 19.9999 0 18.8922 0 13.8791H5.4938C6.06295 17.0615 8.70351 19.3206 11.8745 19.3207C14.3951 19.3207 16.5366 18.8019 16.5366 16.5715C16.5357 11.1595 4.28676 12.1381 4.28572 5.25757C4.28572 1.74871 7.70136 0 11.0351 0Z" fill="#1B181B"/>
<path d="M53.8188 19.8637H59.4563C66.9639 19.8637 69.9994 18.0956 69.9994 14.2604C69.9994 10.9691 67.1265 9.33708 62.5189 9.36428C66.9097 8.65707 68.8882 6.86184 68.8882 4.4954C68.8882 1.04094 66.0424 0.00732422 59.7544 0.00732422H59.5182H53.8188V0.440353V9.2857L58.5619 9.23147V0.53271V0.388131H59.375C59.4231 0.388131 59.4708 0.388426 59.5182 0.38902C62.6201 0.427864 64.1451 1.74286 64.1451 4.95781C64.1451 7.89546 62.4918 9.33708 59.1852 9.33708H58.8406H58.5619V9.23147L53.8188 9.2857V9.72635L58.5619 9.76974V9.69069H58.8406H59.5918C63.4676 9.69069 65.2564 11.4315 65.2564 14.6684C65.2564 17.9501 63.5317 19.4741 59.5182 19.4828L59.4834 19.4828H58.5619V19.3383L53.8188 19.4306V19.8637Z" fill="#1B181B"/>
<path d="M58.5619 19.3383V9.76974L53.8188 9.72635V19.4306L58.5619 19.3383Z" fill="#1B181B"/>
<path d="M42.2031 0.00732422V19.8637H53.8188V19.4306L46.9462 19.5644V9.66348L53.8188 9.72635V9.2857L46.9462 9.36428V0.306529L53.8188 0.440353V0.00732422H42.2031Z" fill="#1B181B"/>
</svg>
